<?xml version="1.0" encoding="utf-8"?>
<!-- Generator: Adobe Illustrator 19.2.0, SVG Export Plug-In . SVG Version: 6.00 Build 0)  -->
<svg version="1.1" id="Layer_1" xmlns="http://www.w3.org/2000/svg" xmlns:xlink="http://www.w3.org/1999/xlink" x="0px" y="0px"
	 viewBox="0 0 272 136" style="enable-background:new 0 0 272 136;" xml:space="preserve">
<metadata><?xpacket begin="﻿" id="W5M0MpCehiHzreSzNTczkc9d"?>
<x:xmpmeta xmlns:x="adobe:ns:meta/" x:xmptk="Adobe XMP Core 5.6-c111 79.158366, 2015/09/25-01:12:00        ">
   <rdf:RDF xmlns:rdf="http://www.w3.org/1999/02/22-rdf-syntax-ns#">
      <rdf:Description rdf:about=""/>
   </rdf:RDF>
</x:xmpmeta>
                                                                                                    
                                                                                                    
                                                                                                    
                                                                                                    
                                                                                                    
                                                                                                    
                                                                                                    
                                                                                                    
                                                                                                    
                                                                                                    
                                                                                                    
                                                                                                    
                                                                                                    
                                                                                                    
                                                                                                    
                                                                                                    
                                                                                                    
                                                                                                    
                                                                                                    
                                                                                                    
                           
<?xpacket end="w"?></metadata>
<style type="text/css">
	.st0{fill:#F27A21;}
	.st1{fill-rule:evenodd;clip-rule:evenodd;fill:#FFFFFF;}
</style>
<g>
	<g>
		<polygon class="st0" points="0,0 272,0 272,136 0,136 0,0 		"/>
	</g>
	<path class="st1" d="M247.7,41.5c-4.1,0-7.2,3.2-7.2,7.2c0,4.1,3.2,7.2,7.2,7.2c4.1,0,7.2-3.2,7.2-7.2
		C255,44.7,251.8,41.5,247.7,41.5L247.7,41.5z M247.7,42.6c3.5,0,6.1,2.7,6.1,6.2c0,3.5-2.6,6.2-6.1,6.2c-3.5,0-6.1-2.7-6.1-6.2
		C241.6,45.3,244.2,42.6,247.7,42.6L247.7,42.6z M246.1,49.2h1.7l2.4,3.7h1.2l-2.5-3.7c1.1-0.2,2.1-0.9,2.1-2.3
		c0-1.5-0.8-2.3-2.7-2.3h-3.2V53h1V49.2L246.1,49.2z M246.1,48.4v-2.9h1.9c1,0,2,0.3,2,1.4c0,1.4-1.2,1.5-2.5,1.5H246.1L246.1,48.4z
		"/>
	<path class="st1" d="M212.8,44.5h14.6l-13.1,36H245l-4.2,11.6h-45.4L212.8,44.5L212.8,44.5z M157.2,44.5h13.9L165,61.3h17.3
		l6.1-16.8h14.3l-17.3,47.6h-14.3l7.1-19.6h-17.3l-7.1,19.6h-13.9L157.2,44.5L157.2,44.5z M115.2,92.2h14.6l17.3-47.6h-14.6
		L115.2,92.2L115.2,92.2z M81.2,92.2h14.5l13.1-36h15l4.2-11.6H83.7l-4.2,11.6h14.9L81.2,92.2L81.2,92.2z M79.7,44.5H45.1
		c-4.9,0-8.2,3.2-9.8,7.4l-4.6,12.6c-2,5.6,0.8,9.8,6.4,9.8h18c0.7,0,1.3,0.7,1,1.5L54.9,79c-0.3,0.9-1.4,1.5-2.1,1.5H24.5
		l-4.2,11.6h36.6c4,0,7.6-1.9,9.7-7.6l4.4-12c2.1-5.7-0.9-9.7-6-9.7H46.8c-1,0-1.4-0.7-1-1.6l1.2-3.2c0.4-1.1,1.2-1.9,2.5-1.9h26.1
		L79.7,44.5L79.7,44.5z"/>
</g>
</svg>
